<?xml version="1.0" encoding="UTF-8" standalone="no"?>
<!-- Created with Inkscape (http://www.inkscape.org/) -->

<svg
   xmlns:a="http://ns.adobe.com/AdobeSVGViewerExtensions/3.0/"
   xmlns:dc="http://purl.org/dc/elements/1.1/"
   xmlns:cc="http://creativecommons.org/ns#"
   xmlns:rdf="http://www.w3.org/1999/02/22-rdf-syntax-ns#"
   xmlns:svg="http://www.w3.org/2000/svg"
   xmlns="http://www.w3.org/2000/svg"
   xmlns:xlink="http://www.w3.org/1999/xlink"
   xmlns:sodipodi="http://sodipodi.sourceforge.net/DTD/sodipodi-0.dtd"
   xmlns:inkscape="http://www.inkscape.org/namespaces/inkscape"
   width="80"
   height="80"
   viewBox="0 0 80.000001 80.000001"
   id="svg6662"
   version="1.1"
   inkscape:version="0.91 r13725"
   sodipodi:docname="documents.svg">
  <defs
     id="defs6664">
    <radialGradient
       inkscape:collect="always"
       xlink:href="#XMLID_15_"
       id="radialGradient5729"
       gradientUnits="userSpaceOnUse"
       gradientTransform="matrix(0.54754374,0,0,0.5476898,1037.9775,458.39457)"
       cx="49.904301"
       cy="47.091801"
       fx="49.904301"
       fy="47.091801"
       r="30.083599" />
    <radialGradient
       id="XMLID_15_"
       cx="49.904301"
       cy="47.091801"
       r="30.083599"
       fx="49.904301"
       fy="47.091801"
       gradientTransform="matrix(0.3749,0,0,0.375,14.9959,15)"
       gradientUnits="userSpaceOnUse">
      <stop
         offset="0"
         style="stop-color:#fbfd4a;stop-opacity:1;"
         id="stop555" />
      <stop
         offset="1"
         style="stop-color:#ff3600;stop-opacity:1;"
         id="stop556" />
      <a:midPointStop
         offset="0"
         style="stop-color:#85CAFF"
         id="midPointStop557" />
      <a:midPointStop
         offset="0.5"
         style="stop-color:#85CAFF"
         id="midPointStop558" />
      <a:midPointStop
         offset="1"
         style="stop-color:#003DA9"
         id="midPointStop559" />
    </radialGradient>
    <linearGradient
       inkscape:collect="always"
       xlink:href="#XMLID_16_"
       id="linearGradient5731"
       gradientUnits="userSpaceOnUse"
       gradientTransform="matrix(1.4605061,0,0,1.4605061,1016.0759,436.48698)"
       x1="33.705101"
       y1="29.922899"
       x2="33.705101"
       y2="40.926601" />
    <linearGradient
       id="XMLID_16_"
       gradientUnits="userSpaceOnUse"
       x1="33.705101"
       y1="29.922899"
       x2="33.705101"
       y2="40.926601">
      <stop
         offset="0"
         style="stop-color:#ffc842;stop-opacity:1;"
         id="stop562" />
      <stop
         offset="1"
         style="stop-color:#ffc842;stop-opacity:1;"
         id="stop563" />
      <a:midPointStop
         offset="0"
         style="stop-color:#3399FF"
         id="midPointStop564" />
      <a:midPointStop
         offset="0.5"
         style="stop-color:#3399FF"
         id="midPointStop565" />
      <a:midPointStop
         offset="1"
         style="stop-color:#3399FF"
         id="midPointStop566" />
    </linearGradient>
    <linearGradient
       inkscape:collect="always"
       xlink:href="#XMLID_17_"
       id="linearGradient5733"
       gradientUnits="userSpaceOnUse"
       gradientTransform="matrix(1.4605061,0,0,1.4605061,1016.0759,436.48698)"
       x1="43.617199"
       y1="24.517099"
       x2="36.868999"
       y2="29.578199" />
    <linearGradient
       id="XMLID_17_"
       gradientUnits="userSpaceOnUse"
       x1="43.617199"
       y1="24.517099"
       x2="36.868999"
       y2="29.578199">
      <stop
         offset="0"
         style="stop-color:#ffc842;stop-opacity:1;"
         id="stop569" />
      <stop
         offset="1"
         style="stop-color:#000000"
         id="stop570" />
      <a:midPointStop
         offset="0"
         style="stop-color:#3399FF"
         id="midPointStop571" />
      <a:midPointStop
         offset="0.5"
         style="stop-color:#3399FF"
         id="midPointStop572" />
      <a:midPointStop
         offset="1"
         style="stop-color:#000000"
         id="midPointStop573" />
    </linearGradient>
    <radialGradient
       inkscape:collect="always"
       xlink:href="#XMLID_20_"
       id="radialGradient5735"
       gradientUnits="userSpaceOnUse"
       gradientTransform="matrix(0.54754374,0,0,0.5476898,1037.9775,458.39457)"
       cx="16.351601"
       cy="37.996101"
       fx="16.351601"
       fy="37.996101"
       r="49.414799" />
    <radialGradient
       id="XMLID_20_"
       cx="16.351601"
       cy="37.996101"
       r="49.414799"
       fx="16.351601"
       fy="37.996101"
       gradientTransform="matrix(0.3749,0,0,0.375,14.9959,15)"
       gradientUnits="userSpaceOnUse">
      <stop
         offset="0"
         style="stop-color:#fbfd4a;stop-opacity:1;"
         id="stop594" />
      <stop
         offset="1"
         style="stop-color:#ff3600;stop-opacity:1;"
         id="stop595" />
      <a:midPointStop
         offset="0"
         style="stop-color:#85CAFF"
         id="midPointStop596" />
      <a:midPointStop
         offset="0.5"
         style="stop-color:#85CAFF"
         id="midPointStop597" />
      <a:midPointStop
         offset="1"
         style="stop-color:#003DA9"
         id="midPointStop598" />
    </radialGradient>
    <radialGradient
       inkscape:collect="always"
       xlink:href="#XMLID_21_"
       id="radialGradient5737"
       gradientUnits="userSpaceOnUse"
       gradientTransform="matrix(0.54243198,-0.07477791,0.07463186,0.54257803,1035.4519,461.44308)"
       cx="38.167999"
       cy="18.062"
       fx="38.167999"
       fy="18.062"
       r="90.268204" />
    <radialGradient
       id="XMLID_21_"
       cx="38.167999"
       cy="18.062"
       r="90.268204"
       fx="38.167999"
       fy="18.062"
       gradientTransform="matrix(0.3714,-0.0512,0.0511,0.3715,13.2666,17.0873)"
       gradientUnits="userSpaceOnUse">
      <stop
         offset="0"
         style="stop-color:#fbf885;stop-opacity:1;"
         id="stop602" />
      <stop
         offset="0.5"
         style="stop-color:#ffc842;stop-opacity:1;"
         id="stop603" />
      <stop
         offset="1"
         style="stop-color:#ff8119;stop-opacity:1;"
         id="stop604" />
      <a:midPointStop
         offset="0"
         style="stop-color:#99CCFF"
         id="midPointStop605" />
      <a:midPointStop
         offset="0.5"
         style="stop-color:#99CCFF"
         id="midPointStop606" />
      <a:midPointStop
         offset="0.5"
         style="stop-color:#3399FF"
         id="midPointStop607" />
      <a:midPointStop
         offset="0.5"
         style="stop-color:#3399FF"
         id="midPointStop608" />
      <a:midPointStop
         offset="1"
         style="stop-color:#3366FF"
         id="midPointStop609" />
    </radialGradient>
    <linearGradient
       inkscape:collect="always"
       xlink:href="#XMLID_22_"
       id="linearGradient5739"
       gradientUnits="userSpaceOnUse"
       gradientTransform="matrix(1.4469234,-0.19921304,0.19921304,1.4469234,1009.338,444.61718)"
       x1="9.6625996"
       y1="14.9292"
       x2="9.6625996"
       y2="11.9287" />
    <linearGradient
       id="XMLID_22_"
       gradientUnits="userSpaceOnUse"
       x1="9.6625996"
       y1="14.9292"
       x2="9.6625996"
       y2="11.9287"
       gradientTransform="matrix(0.9907,-0.1364,0.1364,0.9907,-4.6134,5.5667)">
      <stop
         offset="0"
         style="stop-color:#ffc842;stop-opacity:1;"
         id="stop612" />
      <stop
         offset="0.0546"
         style="stop-color:#ffdd57;stop-opacity:1;"
         id="stop613" />
      <stop
         offset="0.34369999"
         style="stop-color:#fde059;stop-opacity:1;"
         id="stop614" />
      <stop
         offset="0.60750002"
         style="stop-color:#fbe865;stop-opacity:1;"
         id="stop615" />
      <stop
         offset="0.83499998"
         style="stop-color:#faea66;stop-opacity:1;"
         id="stop616" />
      <stop
         offset="1"
         style="stop-color:#fbf885;stop-opacity:1;"
         id="stop617" />
      <a:midPointStop
         offset="0"
         style="stop-color:#3399FF"
         id="midPointStop618" />
      <a:midPointStop
         offset="0.3616"
         style="stop-color:#3399FF"
         id="midPointStop619" />
      <a:midPointStop
         offset="1"
         style="stop-color:#99CCFF"
         id="midPointStop620" />
    </linearGradient>
    <linearGradient
       inkscape:collect="always"
       xlink:href="#XMLID_23_"
       id="linearGradient5741"
       gradientUnits="userSpaceOnUse"
       gradientTransform="matrix(1.4469234,-0.19921304,0.19921304,1.4469234,1009.338,444.61718)"
       x1="13.4614"
       y1="13.7358"
       x2="29.194176"
       y2="33.044605" />
    <linearGradient
       id="XMLID_23_"
       gradientUnits="userSpaceOnUse"
       x1="13.4614"
       y1="13.7358"
       x2="29.0541"
       y2="34.062"
       gradientTransform="matrix(0.9907,-0.1364,0.1364,0.9907,-4.6134,5.5667)">
      <stop
         offset="0"
         style="stop-color:#FFFFFF"
         id="stop623" />
      <stop
         offset="1"
         style="stop-color:#f9ff72;stop-opacity:1"
         id="stop624" />
      <a:midPointStop
         offset="0"
         style="stop-color:#FFFFFF"
         id="midPointStop625" />
      <a:midPointStop
         offset="0.5"
         style="stop-color:#FFFFFF"
         id="midPointStop626" />
      <a:midPointStop
         offset="1"
         style="stop-color:#66B3FF"
         id="midPointStop627" />
    </linearGradient>
    <linearGradient
       inkscape:collect="always"
       xlink:href="#XMLID_28_"
       id="linearGradient5743"
       gradientUnits="userSpaceOnUse"
       x1="41.544899"
       y1="40.627899"
       x2="36.143501"
       y2="36.6497" />
    <linearGradient
       id="XMLID_28_"
       gradientUnits="userSpaceOnUse"
       x1="41.544899"
       y1="40.627899"
       x2="36.143501"
       y2="36.6497">
      <stop
         offset="0"
         style="stop-color:#ffff7e;stop-opacity:1;"
         id="stop655" />
      <stop
         offset="1"
         style="stop-color:#ff9e00;stop-opacity:1;"
         id="stop656" />
      <a:midPointStop
         offset="0"
         style="stop-color:#C5F0FF"
         id="midPointStop657" />
      <a:midPointStop
         offset="0.5"
         style="stop-color:#C5F0FF"
         id="midPointStop658" />
      <a:midPointStop
         offset="1"
         style="stop-color:#1D74D9"
         id="midPointStop659" />
    </linearGradient>
  </defs>
  <sodipodi:namedview
     id="base"
     pagecolor="#ffffff"
     bordercolor="#666666"
     borderopacity="1.0"
     inkscape:pageopacity="0.0"
     inkscape:pageshadow="2"
     inkscape:zoom="2.8"
     inkscape:cx="76.296176"
     inkscape:cy="25.56322"
     inkscape:document-units="px"
     inkscape:current-layer="layer1"
     showgrid="false"
     units="px"
     inkscape:window-width="1325"
     inkscape:window-height="747"
     inkscape:window-x="41"
     inkscape:window-y="333"
     inkscape:window-maximized="1" />
  <metadata
     id="metadata6667">
    <rdf:RDF>
      <cc:Work
         rdf:about="">
        <dc:format>image/svg+xml</dc:format>
        <dc:type
           rdf:resource="http://purl.org/dc/dcmitype/StillImage" />
        <dc:title></dc:title>
      </cc:Work>
    </rdf:RDF>
  </metadata>
  <g
     inkscape:label="Capa 1"
     inkscape:groupmode="layer"
     id="layer1"
     transform="translate(0,-972.36216)">
    <g
       transform="translate(-1009.014,533.1576)"
       id="g5454">
      <rect
         y="439.20456"
         x="1009.014"
         height="80"
         width="80"
         id="rect5456"
         style="opacity:0;fill:#e6e6e6;fill-opacity:1;stroke:none;stroke-width:0.30000001;stroke-linecap:square;stroke-linejoin:bevel;stroke-miterlimit:4;stroke-dasharray:none;stroke-dashoffset:0;stroke-opacity:0.46842107" />
      <g
         id="g5458">
        <path
           style="fill:url(#radialGradient5729)"
           d="m 1082.9627,470.57228 -35.61,4.74955 c -0.574,0.076 -0.9873,0.58421 -0.9465,1.16257 l 1.4313,20.30542 c 0.042,0.59734 0.5579,1.05156 1.1567,1.01651 l 27.1391,-1.58903 c 0.4587,-0.0292 0.853,-0.33738 0.9859,-0.77845 l 7.0367,-23.46741 c 0.1067,-0.35636 0.028,-0.74194 -0.2147,-1.02528 -0.2424,-0.28187 -0.6104,-0.42209 -0.9785,-0.37388 z"
           id="path5460"
           inkscape:connector-curvature="0" />
        <path
           style="fill:url(#linearGradient5731)"
           d="m 1047.4987,476.40845 c 0.067,0.95226 1.3612,19.30644 1.4313,20.30542 1.0253,-0.0599 26.4103,-1.54667 27.1391,-1.58903 0.2074,-0.68936 6.5913,-21.97185 7.0382,-23.46595 -1.5832,0.21177 -34.6403,4.61958 -35.6086,4.74956 z"
           id="path5464"
           inkscape:connector-curvature="0" />
        <path
           style="opacity:0.5;fill:url(#linearGradient5733)"
           d="m 1046.916,477.30521 c 0.096,1.37433 1.2925,18.33811 1.3947,19.78109 1.4956,-0.0891 25.61,-1.49994 26.6791,-1.56274 0.298,-0.99898 6.2159,-20.72604 6.86,-22.87591 -2.3032,0.30671 -33.5186,4.46769 -34.9338,4.65756 z"
           id="path5468"
           inkscape:connector-curvature="0" />
        <path
           style="fill:url(#radialGradient5735)"
           d="m 1069.8649,455.24134 c 0,0 -32.7826,4.51588 -35.2975,4.86203 -0.013,-0.0935 -0.042,-0.30817 -0.042,-0.30817 -0.3681,-2.67711 -2.737,-4.56992 -5.2783,-4.21941 l -8.151,1.12313 c -1.1889,0.16212 -2.2507,0.79013 -2.9927,1.76868 -0.6484,0.85585 -0.9989,1.92786 -0.9989,3.02178 0,0.23222 0.016,0.46445 0.048,0.69667 l 0.4746,3.44241 c 0,0 0.012,0.0701 0.017,0.10369 0.01,0.0468 4.1098,29.85713 4.1098,29.85713 0.028,0.19717 0.097,0.38703 0.2046,0.55499 1.6138,2.50769 3.5387,4.7598 5.7208,6.69204 0.2993,0.26581 0.698,0.38558 1.0938,0.33153 l 46.8005,-6.44667 c 0.3593,-0.0482 0.685,-0.23952 0.9041,-0.52724 0.2191,-0.28918 0.3154,-0.65431 0.2657,-1.01359 l -5.3366,-38.76768 c -0.049,-0.36074 -0.2396,-0.68497 -0.5273,-0.90551 -0.2906,-0.21907 -0.6557,-0.31546 -1.015,-0.26581 z"
           id="path5471"
           inkscape:connector-curvature="0" />
        <path
           style="fill:url(#radialGradient5737)"
           d="m 1070.0519,456.59815 -36.6544,5.04751 -0.2293,-1.66498 c -0.2658,-1.93225 -1.9396,-3.29782 -3.736,-3.04954 l -8.1511,1.12313 c -1.7964,0.24683 -3.0393,2.01404 -2.772,3.94629 l 0.4732,3.44241 c 0,0.0277 0.01,0.0541 0.014,0.0818 l 4.1128,29.87904 c 1.5262,2.37478 3.3752,4.54801 5.4768,6.4087 l 46.8005,-6.44522 -5.3352,-38.76913 z"
           id="path5473"
           inkscape:connector-curvature="0" />
        <path
           style="fill:url(#linearGradient5739)"
           d="m 1021.3936,458.86778 c -1.3451,0.18548 -2.2754,1.54083 -2.071,3.02032 l 0.4747,3.44242 c 0.203,1.47949 1.4634,2.53251 2.81,2.34703 l 8.1511,-1.12313 c 1.3465,-0.18402 2.2754,-1.53937 2.071,-3.02033 l -0.4732,-3.44241 c -0.2045,-1.4795 -1.4649,-2.53252 -2.81,-2.34849 l -8.1526,1.12459 z"
           id="path5475"
           inkscape:connector-curvature="0" />
        <path
           style="opacity:0.8;fill:url(#linearGradient5741)"
           d="m 1019.6658,464.36513 c 0.1607,1.16547 3.0305,22.02004 4.3187,31.37166 0.2804,0.37389 0.5696,0.73902 0.8661,1.0983 0.079,-5.71349 2.4216,-11.59787 7.1244,-14.83582 7.2894,-5.26658 16.2204,-4.63273 24.7191,-7.13457 6.9738,-2.19952 11.8782,-8.59069 12.9152,-15.45654 -0.1432,-1.03257 -0.2337,-1.70148 -0.26,-1.88405 -1.5495,0.21323 -48.131,6.62778 -49.6835,6.84102 z"
           id="path5477"
           inkscape:connector-curvature="0" />
        <path
           style="fill:#ffffff"
           d="m 1029.5067,457.47299 -8.1511,1.12313 c -1.3466,0.18549 -2.2754,1.54084 -2.0709,3.02033 l 0.1504,1.08515 c -0.2045,-1.47949 0.7258,-2.83484 2.0709,-3.02032 l 8.1512,-1.12313 c 1.3451,-0.18549 2.6069,0.86754 2.8099,2.34703 l -0.1504,-1.08516 c -0.203,-1.47949 -1.4634,-2.53251 -2.81,-2.34703 z"
           id="path5479"
           inkscape:connector-curvature="0" />
        <path
           style="opacity:0.8;fill:#ffffff"
           d="m 1019.4584,464.12559 4.2925,31.19204 c 0.3184,0.43377 0.6499,0.85586 0.9931,1.2721 l -3.9521,-28.72231 c -0.2352,-1.70442 0.9975,-3.28323 2.7531,-3.5242 l 45.4523,-6.25974 c 0.1709,-0.0233 0.3403,-0.0292 0.5098,-0.0277 l -0.111,-0.80766 -49.9377,6.87751 z"
           id="path5481"
           inkscape:connector-curvature="0" />
        <polygon
           transform="matrix(1.4605061,0,0,1.4605061,1016.0759,436.48698)"
           style="fill:#ff3600;fill-opacity:1"
           points="38.722,32.001 31.627,42.053 41.232,40.73 39.817,30.447 "
           id="polygon5483" />
        <polygon
           transform="matrix(1.4605061,0,0,1.4605061,1016.0759,436.48698)"
           style="fill:url(#linearGradient5743)"
           points="40.388,40.089 39.334,32.434 33.236,41.074 "
           id="polygon5485" />
        <path
           style="fill:#ffffff"
           d="m 1073.2094,486.92848 c -0.058,-0.42647 -0.1124,-0.82665 -0.1621,-1.18593 -1.6138,2.30614 -5.4316,7.75821 -6.917,9.88325 0.3301,-0.0453 0.7011,-0.0964 1.0984,-0.1519 1.532,-2.19076 4.3625,-6.23197 5.9807,-8.54542 z"
           id="path5487"
           inkscape:connector-curvature="0" />
        <polyline
           transform="matrix(0.5853342,0,0,0.5853342,1013.8256,473.78948)"
           id="polyline5489"
           style="fill:none"
           points="0,48 0,0 47.987,0 47.987,48 " />
      </g>
    </g>
  </g>
</svg>
