<?xml version="1.0" encoding="UTF-8" standalone="no"?>
<!-- Created with Inkscape (http://www.inkscape.org/) -->

<svg
   xmlns:dc="http://purl.org/dc/elements/1.1/"
   xmlns:cc="http://creativecommons.org/ns#"
   xmlns:rdf="http://www.w3.org/1999/02/22-rdf-syntax-ns#"
   xmlns:svg="http://www.w3.org/2000/svg"
   xmlns="http://www.w3.org/2000/svg"
   xmlns:sodipodi="http://sodipodi.sourceforge.net/DTD/sodipodi-0.dtd"
   xmlns:inkscape="http://www.inkscape.org/namespaces/inkscape"
   width="200"
   height="60"
   viewBox="0 0 200 60"
   id="svg6694"
   version="1.1"
   inkscape:version="0.91 r13725"
   sodipodi:docname="logo-chamilo.svg">
  <defs
     id="defs6696" />
  <sodipodi:namedview
     id="base"
     pagecolor="#ffffff"
     bordercolor="#666666"
     borderopacity="1.0"
     inkscape:pageopacity="0.0"
     inkscape:pageshadow="2"
     inkscape:zoom="1.979899"
     inkscape:cx="121.57042"
     inkscape:cy="53.975448"
     inkscape:document-units="px"
     inkscape:current-layer="layer1"
     showgrid="false"
     units="px"
     inkscape:window-width="1325"
     inkscape:window-height="747"
     inkscape:window-x="41"
     inkscape:window-y="21"
     inkscape:window-maximized="1" />
  <metadata
     id="metadata6699">
    <rdf:RDF>
      <cc:Work
         rdf:about="">
        <dc:format>image/svg+xml</dc:format>
        <dc:type
           rdf:resource="http://purl.org/dc/dcmitype/StillImage" />
        <dc:title></dc:title>
      </cc:Work>
    </rdf:RDF>
  </metadata>
  <g
     inkscape:label="Capa 1"
     inkscape:groupmode="layer"
     id="layer1"
     transform="translate(0,-992.36216)">
    <rect
       style="opacity:1;fill:#cccccc;fill-opacity:0;stroke:none;stroke-width:1;stroke-linecap:round;stroke-linejoin:round;stroke-miterlimit:4;stroke-dasharray:none;stroke-dashoffset:0;stroke-opacity:1"
       id="rect7274"
       width="200"
       height="60"
       x="0"
       y="992.36218" />
    <g
       transform="matrix(0.76100143,0,0,0.76100143,-79.129446,664.86824)"
       style="fill:#f2f2f2"
       id="g6644">
      <g
         style="fill:#f2f2f2"
         id="g6646"
         transform="matrix(0.5211852,0.00265067,-0.00264964,0.52098052,89.992849,329.69491)">
        <path
           style="fill:#f2f2f2"
           id="path6648"
           inkscape:connector-curvature="0"
           d="m 145.07,280.927 c 0,0 0.799,-0.399 1.039,-1.758 0,-0.08 0,-0.16 0,-0.24 l 0,-0.24 c -0.08,-1.278 -1.359,-2.797 -2.797,-4.315 -1.678,-1.678 -3.116,-2.478 -3.116,-2.478 0,0 -0.719,-3.356 -3.756,-7.99 -2.956,-4.635 -8.071,-9.509 -10.867,-8.071 -2.797,1.438 -0.32,5.434 -0.16,6.633 0.24,1.278 1.438,3.356 1.039,3.356 -0.479,-0.08 -6.553,-11.507 -21.735,-8.31 -3.916,0.878 -7.272,2.557 -9.989,4.714 l 0,26.69 c 0.959,-0.959 1.358,-1.439 1.358,-1.439 0,0 1.039,4.795 2.957,6.953 1.918,2.157 4.235,3.436 4.954,1.837 0.719,-1.518 -1.518,-8.07 -1.518,-8.07 0,0 4.155,3.995 5.354,4.954 1.199,0.958 3.516,2.157 4.155,0 0.559,-2.157 -1.119,-5.433 -2.477,-5.992 -1.278,-0.56 -2.078,-0.56 -2.078,-0.56 0,0 -0.799,-1.039 -1.199,-1.359 -0.479,-0.32 -0.559,-0.319 -0.559,-0.319 0,0 0.719,-0.4 2.957,-0.32 2.317,0.08 4.155,0.16 4.155,0.16 0,0 2.078,3.036 3.356,3.995 1.199,1.039 4.315,3.516 5.434,4.554 1.039,1.039 1.678,1.519 2.078,0.639 0.32,-0.879 -0.24,-3.196 -1.678,-4.874 -1.518,-1.598 -3.116,-2.477 -3.676,-3.276 -0.479,-0.959 -0.799,-1.678 -0.799,-1.678 0,0 2.957,2.157 3.676,2.877 0.799,0.639 6.073,3.915 6.952,4.474 0.879,0.64 1.279,0.24 1.279,0.24 0,0 0.639,0.479 0.879,0.16 0.24,-0.32 0.879,-2.477 -0.799,-3.755 -1.758,-1.359 -2.797,-1.998 -2.637,-2.158 0.08,-0.159 1.838,0.4 2.077,-0.08 0.16,-0.399 -0.08,-1.038 -0.32,-1.198 -0.16,-0.241 0.48,-0.72 0.48,-0.72 0,0 0.639,0 3.276,0.24 2.637,0.24 9.269,-1.997 10.628,-2.477 1.358,-0.48 2.077,-0.799 2.077,-0.799 l 0,0 0,0 z m -50.342,34.36 c 5.514,-3.595 5.753,-12.705 2.717,-14.463 -0.879,-0.559 -1.758,-0.958 -2.717,-1.199 l 0,4.156 c 0.24,0.159 0.48,0.4 0.639,0.799 0.479,0.959 0.24,2.157 0.24,2.157 0,0 -0.08,-1.518 -0.639,-2.317 -0.08,-0.08 -0.16,-0.16 -0.24,-0.24 l 0,11.107 0,0 z m 0,-53.059 c -1.198,0.88 -2.237,1.918 -3.196,2.957 l 0,26.449 c 0.799,-0.479 1.518,-0.959 2.158,-1.598 0.4,-0.399 0.719,-0.799 1.039,-1.118 l -0.001,-26.69 0,0 z m -3.196,54.417 c 1.199,-0.239 2.317,-0.719 3.196,-1.358 l 0,-11.107 c -0.479,-0.639 -0.879,-1.039 -0.879,-1.039 0,0 0.4,0.16 0.879,0.64 l 0,-4.156 c -1.039,-0.319 -2.158,-0.479 -3.196,-0.239 l 0,6.952 0,0 c 0.24,-0.16 0.639,-0.24 0.479,0.32 -0.08,0.32 -0.32,0.319 -0.48,0.32 l 0,0 0,4.075 c 0.16,0 0.399,0 0.559,-0.08 0,0 -0.16,0.16 -0.56,0.319 l 0.002,5.353 0,0 z m 0,-51.46 c -5.594,5.913 -8.071,13.025 -8.63,14.623 -0.879,2.477 -6.552,11.426 -7.032,16.7 -0.4,5.354 -0.479,18.379 11.667,20.137 1.438,0.24 2.797,0.239 3.995,-10e-4 l 0,-5.353 c -1.119,0.319 -3.596,0.639 -6.393,-2.557 -3.756,-4.315 -1.918,-11.347 1.039,-13.745 1.918,-1.598 3.756,-2.477 5.354,-3.356 l 0,-26.448 0,0 0,0 z m 0,34.2 0,6.952 c -0.24,0.16 -0.4,0.16 -0.559,-0.08 -0.16,0.48 0.16,0.719 0.559,0.719 l 0,4.075 c -2.557,0.239 -6.073,-1.998 -5.194,-5.514 1.039,-3.994 2.957,-5.752 5.194,-6.152 z" />
        <g
           style="fill:#f2f2f2"
           id="g6650"
           transform="matrix(0.3825107,0,0,0.3825107,20.089286,125.61275)"
           inkscape:transform-center-y="-44.562164">
          <path
             style="fill:#f2f2f2"
             id="path6652"
             sodipodi:nodetypes="sssssssss"
             inkscape:connector-curvature="0"
             d="m 227.414,246.939 13.283,-0.497 c 7.13,-0.267 16.92,4.74 16.36,13.874 l -3.482,56.799 c -0.436,7.122 -3.506,10.89 -9.149,10.891 l -17.511,0 c -7.135,-10e-4 -10.136,-4.519 -10.641,-11.636 l -3.979,-56.054 c -0.503,-7.119 5,-12.998 15.119,-13.377 l 0,0 z" />
        </g>
        <g
           style="fill:#f2f2f2"
           id="g6654"
           transform="matrix(0.31077472,-0.25449536,0.25449536,0.31077472,-108.32473,252.83556)"
           inkscape:transform-center-x="29.82031"
           inkscape:transform-center-y="-36.33424">
          <path
             style="fill:#f2f2f2"
             id="path6656"
             sodipodi:nodetypes="sssssssss"
             inkscape:connector-curvature="0"
             d="m 364.994,242.27 13.283,-0.498 c 7.129,-0.267 16.919,4.74 16.36,13.874 l -3.481,56.799 c -0.437,7.122 -3.506,10.89 -9.149,10.89 l -17.511,0.001 c -7.135,-0.001 -10.136,-4.519 -10.64,-11.636 l -3.979,-56.054 c -0.506,-7.117 4.998,-12.998 15.117,-13.376 l 0,0 z" />
        </g>
        <g
           style="fill:#f2f2f2"
           id="g6658"
           transform="matrix(0.07828233,-0.37104593,0.37104593,0.07828233,-104.36,429.7208)"
           inkscape:transform-center-x="43.056986"
           inkscape:transform-center-y="-9.8080536">
          <path
             style="fill:#f2f2f2"
             id="path6660"
             sodipodi:nodetypes="sssssssss"
             inkscape:connector-curvature="0"
             d="m 485.005,307.459 13.284,-0.497 c 7.129,-0.267 16.92,4.739 16.36,13.874 l -3.481,56.8 c -0.436,7.121 -3.506,10.889 -9.149,10.89 l -17.512,0 c -7.135,0 -10.134,-4.519 -10.64,-11.636 l -3.978,-56.054 c -0.505,-7.117 4.999,-12.998 15.116,-13.377 l 0,0 z" />
        </g>
        <g
           style="fill:#f2f2f2"
           id="g6662"
           transform="matrix(-0.13902763,-0.26521617,0.26521617,-0.13902763,13.934291,526.86862)"
           inkscape:transform-center-x="30.900947"
           inkscape:transform-center-y="16.468461">
          <path
             style="fill:#f2f2f2"
             id="path6664"
             sodipodi:nodetypes="sssssssss"
             inkscape:connector-curvature="0"
             d="m 584.441,445.677 13.283,-0.497 c 7.131,-0.266 16.921,4.741 16.36,13.874 l -3.48,56.8 c -0.438,7.121 -3.505,10.89 -9.149,10.89 l -17.511,0 c -7.134,0 -10.135,-4.518 -10.639,-11.635 l -3.98,-56.054 c -0.504,-7.118 4.999,-12.998 15.116,-13.378 l 0,0 z" />
        </g>
      </g>
      <g
         style="fill:#f2f2f2"
         id="g6666">
        <path
           d="m 344.28721,479.73357 0,-5.52303 c 1.82457,0 3.36152,-0.6243 4.61012,-1.92076 1.20076,-1.2967 1.82506,-2.97796 1.82506,-4.99492 0,-2.01746 -0.57594,-3.69822 -1.82506,-4.94733 -1.20024,-1.2486 -2.73721,-1.8729 -4.61012,-1.8729 l 0,-5.61923 c 2.16127,0.0479 4.27418,0.57645 6.19543,1.68076 1.96886,1.1048 3.50583,2.64176 4.61062,4.56252 1.10431,1.87366 1.63291,3.93847 1.63291,6.14758 0,2.25771 -0.52835,4.32252 -1.63291,6.29188 -1.1529,1.96886 -2.64176,3.45797 -4.56277,4.56252 -1.87291,1.10431 -3.98607,1.63291 -6.24328,1.63291 l 0,0 z m 0,-24.87842 0,5.61922 -0.0484,0 c -1.82506,0 -3.36201,0.62431 -4.61062,1.87341 -1.20026,1.29671 -1.82456,2.92937 -1.82456,4.94683 0,2.06481 0.6243,3.74607 1.82456,4.99492 1.20076,1.29646 2.73771,1.92076 4.61062,1.92076 0,0 0,0 0.0484,0 l 0,5.52303 c -0.0484,0 -0.0484,0 -0.0965,0 -3.40987,0 -6.29138,-1.20076 -8.69288,-3.60202 -2.40152,-2.44936 -3.60227,-5.37872 -3.60227,-8.83669 0,-3.69822 1.34506,-6.72403 4.08277,-9.22175 2.35316,-2.11316 5.09062,-3.21771 8.16454,-3.21771 0.0478,0 0.0959,0 0.1443,0 l 0,0 0,0 z m -92.74155,24.83032 0,-5.37923 c 1.87291,0 3.40962,-0.6724 4.61037,-1.96886 1.24861,-1.2967 1.87316,-2.97796 1.87316,-5.09112 0,-2.06481 -0.6243,-3.74607 -1.87316,-4.99493 -1.20075,-1.2486 -2.73746,-1.87316 -4.61037,-1.87316 l 0,-5.42707 c 0.96026,0.0962 1.87291,0.3362 2.73746,0.7205 1.24861,0.5281 2.40152,1.34481 3.45797,2.40126 l 0,-2.59341 5.95518,0 0,23.67742 -5.95518,0 0,-2.54532 c -1.1529,1.15291 -2.30506,1.92076 -3.50582,2.40127 -0.8167,0.38455 -1.72935,0.5767 -2.68961,0.67265 l 0,0 0,0 z m 18.10629,-24.20577 5.95518,0 0,2.73771 c 1.00835,-1.1529 2.16126,-1.96911 3.40987,-2.49746 1.2486,-0.57645 2.59391,-0.86455 4.03442,-0.86455 1.48885,0 2.83366,0.38405 4.03442,1.10455 1.20076,0.72051 2.16127,1.77696 2.88201,3.16987 0.91266,-1.39316 2.11291,-2.44936 3.45797,-3.16987 1.39266,-0.7205 2.88151,-1.10455 4.51442,-1.10455 1.68126,0 3.17012,0.38405 4.41897,1.20075 1.29671,0.76811 2.20912,1.77696 2.78557,3.07392 0.52785,1.24835 0.8162,3.26607 0.8162,6.09948 l 0,13.92782 -5.95518,0 0,-12.05466 c 0,-2.68961 -0.3362,-4.51467 -1.00835,-5.42733 -0.67215,-0.91265 -1.68126,-1.39266 -3.02582,-1.39266 -1.00835,0 -1.92101,0.28811 -2.73771,0.86481 -0.8162,0.52785 -1.39266,1.34456 -1.77721,2.35316 -0.43215,1.05696 -0.6243,2.68961 -0.6243,4.94683 l 0,10.7101 -5.95518,0 0,-11.47821 c 0,-2.16126 -0.1924,-3.69822 -0.48,-4.61062 -0.33671,-0.96051 -0.81671,-1.63291 -1.44101,-2.11341 -0.6243,-0.43215 -1.34456,-0.6724 -2.25721,-0.6724 -0.96101,0 -1.87366,0.2881 -2.68962,0.8648 -0.7686,0.52785 -1.39315,1.39266 -1.77721,2.44936 -0.43215,1.05646 -0.6243,2.73722 -0.6243,4.99493 l 0,10.5658 -5.95518,0 0,-23.67817 -7.5e-4,0 0,0 z m 44.32927,-9.74985 c 1.05696,0 1.92151,0.3843 2.68961,1.10481 0.72026,0.76835 1.10481,1.68075 1.10481,2.73771 0,1.10431 -0.3362,1.96886 -1.10481,2.73746 -0.72025,0.76836 -1.6329,1.10456 -2.64125,1.10456 -1.05695,0 -1.96936,-0.38405 -2.73771,-1.15266 -0.72076,-0.7205 -1.10481,-1.681 -1.10481,-2.73771 0,-1.05671 0.38405,-1.96911 1.10481,-2.68936 0.7205,-0.7686 1.6329,-1.10481 2.68936,-1.10481 l 0,0 z m -2.97746,9.74985 5.95518,0 0,23.67742 -5.95518,0 0,-23.67742 0,0 z m 10.70984,-9.17365 5.95568,0 0,32.85082 -5.95568,0 0,-32.85082 0,0 z m -112.9129,6.48379 -4.27442,4.08252 c -2.92962,-3.07392 -6.19542,-4.61063 -9.79745,-4.61063 -3.07391,0 -5.66733,1.05671 -7.73239,3.12177 -2.11341,2.11341 -3.16987,4.65872 -3.16987,7.68454 0,2.16126 0.48026,4.03442 1.39291,5.71493 0.91266,1.6334 2.25746,2.92986 3.93847,3.89037 1.72886,0.96025 3.60202,1.3924 5.66708,1.3924 1.77721,0 3.40987,-0.2876 4.85087,-0.96025 1.48861,-0.67241 3.12177,-1.87316 4.85063,-3.60177 l 4.13037,4.27442 c -2.35341,2.35316 -4.61063,3.93847 -6.72404,4.85088 -2.06506,0.86405 -4.46657,1.2967 -7.20403,1.2967 -4.94683,0 -9.02935,-1.53696 -12.24731,-4.70707 -3.16987,-3.16962 -4.75468,-7.20379 -4.75468,-12.15061 0,-3.16987 0.72026,-6.00353 2.20936,-8.50099 1.44076,-2.44937 3.50582,-4.46658 6.19543,-5.95518 2.68937,-1.53696 5.57113,-2.30557 8.6929,-2.30557 2.64151,0 5.18707,0.57646 7.63644,1.68101 2.44961,1.15266 4.56252,2.73747 6.33973,4.80253 l 0,0 z m 42.74496,2.16126 0,5.42707 -0.0479,0 c -1.87316,0 -3.36202,0.62456 -4.61062,1.87316 -1.20076,1.29671 -1.82506,2.97797 -1.82506,4.99493 0,2.06531 0.6243,3.74607 1.87316,5.09112 1.2486,1.29646 2.78556,1.96886 4.56277,1.96886 0.0479,0 0.0479,0 0.0479,0 l 0,5.37923 c -0.3362,0.0478 -0.72025,0.0478 -1.1043,0.0478 -3.07392,0 -5.71543,-1.15291 -7.97289,-3.55417 -2.20911,-2.35316 -3.31417,-5.33087 -3.31417,-8.83669 0,-3.65012 1.05645,-6.62808 3.21772,-8.9815 2.16126,-2.30506 4.80302,-3.50581 7.87694,-3.50581 0.47975,0 0.8643,0.0481 1.29645,0.096 l 0,0 0,0 z m -38.03839,-8.64505 5.90758,0 0,11.57491 c 1.15291,-1.0086 2.35366,-1.77721 3.50582,-2.25746 1.20075,-0.5281 2.35366,-0.76835 3.55442,-0.76835 2.30506,0 4.32252,0.81645 5.90733,2.44936 1.39315,1.39266 2.06531,3.50632 2.06531,6.19543 l 0,15.65693 -5.85948,0 0,-10.422 c 0,-2.73772 -0.0965,-4.61063 -0.38456,-5.57113 -0.23974,-0.96051 -0.72024,-1.63291 -1.29669,-2.11341 -0.62431,-0.48026 -1.39266,-0.72026 -2.30506,-0.72026 -1.24862,0 -2.25772,0.38431 -3.12177,1.20076 -0.86455,0.72025 -1.48886,1.82506 -1.82506,3.21772 -0.1443,0.72075 -0.24025,2.30556 -0.24025,4.85087 l 0,9.5572 -5.90758,0 0,-32.85057 z"
           inkscape:connector-curvature="0"
           id="path6668"
           style="fill:#f2f2f2" />
        <path
           d="m 352.45166,491.59658 0,-0.7686 0,0 c 0.4805,0 0.86455,-0.096 1.2486,-0.33621 0.38455,-0.24025 0.67291,-0.57645 0.86456,-1.00835 l 0.86455,0 c -0.24025,0.6724 -0.6724,1.20076 -1.15291,1.58481 -0.52785,0.3362 -1.1043,0.52835 -1.7767,0.52835 l -0.0481,0 0,0 0,0 z m 0,-2.97797 0,-0.6724 2.30556,0 c -0.1443,-0.6724 -0.38405,-1.20075 -0.81671,-1.53696 -0.38405,-0.3362 -0.86455,-0.52835 -1.48885,-0.52835 l 0,-0.7681 c 0.0483,0 0.0483,0 0.0483,0 0.9605,0 1.68075,0.3362 2.25721,0.9605 0.57645,0.62431 0.91265,1.48836 0.91265,2.49746 l 0,0.0478 -3.21821,0 0,0 z m 0,-3.50581 0,0.7681 -0.0478,0 c -0.57646,0 -1.10431,0.1924 -1.48886,0.52835 -0.43215,0.38406 -0.6724,0.91266 -0.7681,1.53696 l 2.30506,0 0,0.6724 -2.35316,0 c 0.0478,0.67241 0.2881,1.20076 0.72025,1.58481 0.43265,0.43215 1.00835,0.62431 1.63291,0.62431 l 0,0.7686 c -0.86406,0 -1.63291,-0.3367 -2.20911,-0.96101 -0.62431,-0.6243 -0.96051,-1.39265 -0.96051,-2.25721 0,-0.9605 0.3362,-1.7286 0.91266,-2.35316 0.6238,-0.57595 1.34405,-0.86405 2.25671,-0.91215 l 0,0 0,0 z m -10.0377,6.48378 0,-0.72075 c 0.0479,0 0.0479,0 0.0479,0 0.6243,0 1.1529,-0.28811 1.6329,-0.76811 0.43266,-0.4805 0.67291,-1.1048 0.67291,-1.77721 0,-0.6724 -0.24025,-1.2486 -0.67291,-1.72911 -0.48,-0.48 -1.00835,-0.72025 -1.6329,-0.72025 0,0 0,0 -0.0479,0 l 0,-0.72025 c 0.0479,0 0.0479,0 0.096,0 0.4805,0 0.86455,0.0959 1.2967,0.2881 0.38456,0.1919 0.72076,0.48 0.96051,0.8162 l 0,-0.9605 0.7686,0 0,6.09973 -0.7686,0 0,-0.96051 c -0.23975,0.38406 -0.57595,0.62431 -1.00836,0.86456 -0.38405,0.1919 -0.86455,0.2876 -1.34455,0.2876 l 0,0 0,5e-4 z m 5.13922,-0.1924 -0.7686,0 0,-6.09973 0.72025,0 0,0.72025 c 0.1924,-0.2876 0.43265,-0.48 0.6243,-0.6243 0.24026,-0.1438 0.52836,-0.1919 0.81671,-0.1919 l 0,0.86455 c -0.48,0.0478 -0.86456,0.1919 -1.05646,0.43215 -0.1924,0.24026 -0.3362,0.67241 -0.3362,1.20076 l 0,3.69822 0,0 z m -5.13922,-6.24328 0,0.72025 c -0.62431,0 -1.15291,0.24025 -1.63291,0.72025 -0.43265,0.48051 -0.67291,1.10481 -0.67291,1.82506 0,0.67241 0.24026,1.24861 0.67291,1.72911 0.48,0.48 1.00835,0.67241 1.63291,0.72026 l 0,0.72075 0,0 c -0.86456,0 -1.63291,-0.3367 -2.20911,-0.91265 -0.62431,-0.62431 -0.91266,-1.39316 -0.91266,-2.30557 0,-0.9124 0.2881,-1.68075 0.91266,-2.30506 0.57645,-0.57645 1.34455,-0.9124 2.20911,-0.9124 l 0,0 z m -11.38251,0.9124 0,-0.72075 2.06531,6.05163 0.48,0 1.44101,-4.65872 1.44101,4.65872 0.52785,0 2.06531,-6.09973 -0.86456,0 -1.48885,4.56277 -1.39266,-4.56277 -0.57645,0 -1.39266,4.56277 -1.48886,-4.56277 -0.8167,0 0,0 0,0.76885 0,0 0,0 z m 0,-0.72075 0,0.72075 -1.15291,0 0,5.33088 -0.76809,0 0,-5.33088 -1.15291,0 0,-0.7686 1.15291,0 0,-1.96886 0.76809,0 0,1.96886 1.15291,0 0,0 0,0.0478 0,0 z m -9.70149,6.24403 0,-0.7686 c 0,0 0,0 0.0478,0 0.6243,0 1.20076,-0.24026 1.63291,-0.72026 0.43215,-0.43265 0.6724,-1.05695 0.6724,-1.77721 0,-0.72025 -0.24025,-1.2967 -0.6724,-1.77721 -0.43215,-0.43215 -1.00836,-0.6724 -1.68076,-0.6724 l 0,-0.7681 c 0.86405,0 1.63291,0.3362 2.25721,0.91215 0.6243,0.6243 0.91265,1.39316 0.91265,2.25771 0,0.91266 -0.2881,1.68076 -0.91265,2.35316 -0.6243,0.62431 -1.34456,0.96101 -2.20911,0.96101 -0.0481,-2.5e-4 -0.0481,-2.5e-4 -0.0481,-2.5e-4 l 0,0 0,0 z m 5.18657,-0.1924 -0.7681,0 0,-5.42733 -0.8167,0 0,-0.6724 0.8167,0 0,-0.1919 c 0,-0.62481 0.1438,-1.10481 0.48,-1.44101 0.33671,-0.2881 0.81671,-0.43265 1.48886,-0.43265 l 0.0965,0 0,0.6729 c -0.4805,0 -0.8167,0.096 -1.00885,0.2881 -0.1919,0.1919 -0.28811,0.48 -0.28811,0.91266 l 0,0.1919 1.29721,0 0,0.6724 -1.29721,0 0,5.42733 -2.5e-4,0 z m -5.18657,-6.29138 0,0.7681 -0.0484,0 c -0.6243,0 -1.15241,0.24025 -1.58481,0.6724 -0.48,0.48051 -0.6724,1.10481 -0.6724,1.77721 0,0.72026 0.1924,1.34456 0.6724,1.77721 0.43265,0.48 0.96051,0.72026 1.63341,0.72026 l 0,0.7686 c -0.86455,0 -1.63341,-0.3367 -2.20961,-0.96101 -0.62431,-0.6243 -0.96051,-1.39265 -0.96051,-2.25721 0,-0.91265 0.3362,-1.68075 0.96051,-2.30506 0.6243,-0.6729 1.34506,-0.9605 2.16126,-0.9605 0.0481,0 0.0481,0 0.0481,0 l 0,0 0,0 z m -20.1721,6.48378 0,-0.7686 0,0 c 0.67241,0 1.20076,-0.24026 1.68126,-0.72026 0.43215,-0.43265 0.6243,-1.05695 0.6243,-1.77721 0,-0.72025 -0.1924,-1.2967 -0.6724,-1.77721 -0.43265,-0.43215 -0.961,-0.6724 -1.63341,-0.6724 l 0,-0.7681 c 0.86456,0 1.58481,0.3362 2.20911,0.91215 0.62431,0.6243 0.96101,1.39316 0.96101,2.25771 0,0.91266 -0.3367,1.68076 -0.91266,2.35316 -0.6238,0.62406 -1.3924,0.96076 -2.25721,0.96076 l 0,0 0,0 0,0 z m 4.08227,-6.29188 0.76861,0 0,0.6724 c 0.24025,-0.23975 0.52835,-0.48 0.8167,-0.6243 0.3362,-0.096 0.6724,-0.1919 1.10431,-0.1919 0.43265,0 0.86455,0.0959 1.20075,0.23975 0.3362,0.1924 0.62431,0.43265 0.81671,0.72075 0.1438,0.24025 0.23975,0.48 0.3362,0.81621 0.0478,0.2881 0.096,0.72075 0.096,1.2972 l 0,3.16962 -0.81671,0 0,-3.41012 c 0,-0.72025 -0.1438,-1.2486 -0.38405,-1.58481 -0.2881,-0.3362 -0.72025,-0.4805 -1.34455,-0.4805 -0.33621,0 -0.67241,0.0479 -0.91266,0.1924 -0.2881,0.1438 -0.4805,0.38405 -0.6724,0.62431 -0.0965,0.1919 -0.1443,0.38405 -0.1924,0.57645 -0.0479,0.23975 -0.0479,0.57645 -0.0479,1.1043 l 0,2.97797 -0.76861,0 0,-6.09973 0,0 0,0 z m 7.68454,3.79392 0.76861,0 c 0,0.52835 0.1438,0.91265 0.38405,1.20075 0.2881,0.2881 0.6243,0.43266 1.05695,0.43266 0.48,0 0.86406,-0.14431 1.15241,-0.43266 0.28834,-0.28835 0.43265,-0.6724 0.43265,-1.20075 0,-0.72026 -0.57645,-1.29671 -1.72911,-1.68076 -0.096,0 -0.1438,-0.0479 -0.1924,-0.0479 -0.6243,-0.1924 -1.00835,-0.4805 -1.29671,-0.76861 -0.24025,-0.3362 -0.38405,-0.72025 -0.38405,-1.2486 0,-0.6243 0.1924,-1.15241 0.62431,-1.58481 0.38405,-0.38405 0.91265,-0.6243 1.53695,-0.6243 0.62431,0 1.10481,0.1924 1.44101,0.57645 0.38405,0.38405 0.57645,0.91266 0.6243,1.58481 l -0.76861,0 c -0.0478,-0.43215 -0.19189,-0.7681 -0.38404,-1.00836 -0.24025,-0.24025 -0.52835,-0.38405 -0.91266,-0.38405 -0.3843,0 -0.72025,0.1438 -0.9605,0.38405 -0.2881,0.28811 -0.38405,0.62431 -0.38405,1.00836 0,0.24025 0,0.38405 0.0959,0.57645 0.096,0.1443 0.1924,0.2881 0.38405,0.38405 0.1443,0.1443 0.4805,0.2881 0.9605,0.43266 0.28811,0.096 0.48051,0.1919 0.62431,0.23975 0.52834,0.1924 0.91265,0.43265 1.1529,0.7686 0.24025,0.33595 0.3362,0.72025 0.3362,1.24861 0,0.8167 -0.1919,1.441 -0.6243,1.92101 -0.43215,0.4805 -1.00835,0.72075 -1.72861,0.72075 -0.6248,0 -1.20075,-0.24025 -1.5853,-0.6729 -0.43216,-0.48001 -0.62431,-1.05646 -0.62431,-1.82456 l 0,-7.5e-4 z m -11.76681,-3.98582 0,0.7681 c -0.0479,0 -0.0479,0 -0.0479,0 -0.6243,0 -1.20075,0.24025 -1.63291,0.6724 -0.43265,0.48051 -0.6724,1.10481 -0.6724,1.77721 0,0.72026 0.23975,1.34456 0.6724,1.77721 0.48001,0.48 1.00836,0.72026 1.68076,0.72026 l 0,0.7686 c -0.91265,0 -1.63291,-0.3367 -2.25721,-0.96101 -0.6243,-0.6243 -0.91265,-1.39265 -0.91265,-2.25721 0,-0.91265 0.2881,-1.68075 0.91265,-2.30506 0.6243,-0.6729 1.34456,-0.9605 2.20911,-0.9605 2.5e-4,0 2.5e-4,0 0.0481,0 l 0,0 0,0 z m -12.34301,6.48378 0,-0.72075 0,0 c 0.6243,0 1.15291,-0.28811 1.63341,-0.76811 0.43215,-0.4805 0.6724,-1.1048 0.6724,-1.77721 0,-0.6724 -0.24025,-1.2486 -0.6724,-1.72911 -0.4805,-0.48 -1.00886,-0.72025 -1.63341,-0.72025 l 0,0 0,-0.72025 c 0,0 0,0 0.0479,0 0.4805,0 0.91266,0.0959 1.29721,0.2881 0.38405,0.1919 0.72025,0.48 0.9605,0.8162 l 0,-0.9605 0.76811,0 0,6.09973 -0.76811,0 0,-0.96051 c -0.24025,0.38406 -0.57645,0.62431 -0.9605,0.86456 -0.43265,0.1919 -0.86456,0.2876 -1.34506,0.2876 l 0,0 0,5e-4 z m 4.85088,-0.1924 0,-5.33088 -1.15291,0 0,-0.7686 1.15291,0 0,-1.96886 0.8167,0 0,1.96886 1.15241,0 0,0.7686 -1.15241,0 0,5.33088 -0.8167,0 0,0 z m 3.41011,-6.81973 -0.8167,0 0,-1.24861 0.8167,0 0,1.24861 0,0 z m -0.8167,6.81973 0,-6.09973 0.8167,0 0,6.09973 -0.8167,0 z m -7.44429,-6.24328 0,0.72025 c -0.6724,0 -1.20075,0.24025 -1.68076,0.72025 -0.43265,0.48051 -0.6724,1.10481 -0.6724,1.82506 0,0.67241 0.23975,1.24861 0.6724,1.72911 0.48001,0.48 1.00836,0.67241 1.68076,0.72026 l 0,0.72075 -0.0478,0 c -0.86455,0 -1.63291,-0.3367 -2.20911,-0.91265 -0.6243,-0.62431 -0.91265,-1.39316 -0.91265,-2.30557 0,-0.9124 0.2881,-1.68075 0.91265,-2.30506 0.5762,-0.57645 1.34431,-0.9124 2.25696,-0.9124 l 0,0 z m -9.7977,6.43568 0,-0.7686 0,0 c 0.67291,0 1.20076,-0.24026 1.68126,-0.72026 0.43215,-0.43265 0.6724,-1.05695 0.6724,-1.77721 0,-0.72025 -0.24025,-1.2967 -0.6724,-1.77721 -0.4805,-0.43215 -1.00835,-0.6724 -1.68126,-0.6724 l 0,-0.7681 c 0.86456,0 1.58531,0.3362 2.20961,0.91215 0.62431,0.6243 0.96051,1.39316 0.96051,2.25771 0,0.91266 -0.3362,1.68076 -0.91266,2.35316 -0.6243,0.62406 -1.3929,0.96076 -2.25746,0.96076 l 0,0 0,0 0,0 z m 4.85088,-0.1924 -0.76811,0 0,-6.09973 0.72026,0 0,0.72025 c 0.1924,-0.2876 0.43215,-0.48 0.6243,-0.6243 0.24025,-0.1438 0.52835,-0.1919 0.8167,-0.1919 l 0,0.86455 c -0.4805,0.0478 -0.8167,0.1919 -1.05695,0.43215 -0.1919,0.24026 -0.3362,0.67241 -0.3362,1.20076 l 0,3.69822 0,0 z m -4.85063,-6.29138 0,0.7681 -0.0484,0 c -0.6243,0 -1.1524,0.24025 -1.63291,0.6724 -0.43215,0.48051 -0.6724,1.10481 -0.6724,1.77721 0,0.72026 0.24025,1.34456 0.6724,1.77721 0.48051,0.48 1.00836,0.72026 1.68126,0.72026 l 0,0.7686 c -0.86455,0 -1.63341,-0.3367 -2.25771,-0.96101 -0.57645,-0.6243 -0.91265,-1.39265 -0.91265,-2.25721 0,-0.91265 0.3362,-1.68075 0.91265,-2.30506 0.6243,-0.6729 1.34506,-0.9605 2.20911,-0.9605 l 0.0486,0 0,0 0,0 z m -6.91618,6.48378 0,-0.72075 c 0.6243,-0.0478 1.1529,-0.28811 1.63291,-0.76811 0.43265,-0.4805 0.6729,-1.05695 0.6729,-1.77721 0,-0.6724 -0.24025,-1.2486 -0.6729,-1.72911 -0.48001,-0.48 -1.00836,-0.72025 -1.63291,-0.72025 l 0,-0.72025 0.0478,0 c 0.86455,0 1.58481,0.2881 2.20911,0.91265 0.57645,0.62431 0.86455,1.39266 0.86455,2.30506 0,0.91241 -0.2881,1.68126 -0.91265,2.25721 -0.57595,0.62406 -1.34431,0.96076 -2.20886,0.96076 z m 0,-6.43568 0,0.72025 c 0,0 0,0 -0.0479,0 -0.6243,0 -1.15291,0.24025 -1.63291,0.76861 -0.43265,0.48 -0.6729,1.05645 -0.6729,1.7767 0,0.67241 0.24025,1.20076 0.72075,1.68126 0.43215,0.52785 0.9605,0.76811 1.58481,0.76811 0,0 0,0 0.0479,0 l 0,0.72075 c -0.0479,0 -0.0479,0 -0.0479,0 -0.48051,0 -0.86456,-0.0965 -1.24861,-0.2881 -0.38405,-0.1924 -0.72025,-0.43265 -1.05695,-0.81671 l 0,0.91266 -0.76811,0 0,-8.06859 0.76811,0 0,2.54531 0,0.43215 c 0.3367,-0.38405 0.72075,-0.6724 1.1048,-0.86405 0.3843,-0.19265 0.76886,-0.28835 1.24886,-0.28835 l 0,0 0,0 z m -7.44429,6.43568 0,-0.72075 0,0 c 0.6243,0 1.20076,-0.28811 1.63291,-0.76811 0.4805,-0.4805 0.72075,-1.1048 0.72075,-1.77721 0,-0.6724 -0.24025,-1.2486 -0.72075,-1.72911 -0.43215,-0.48 -1.00836,-0.72025 -1.58481,-0.72025 l -0.0481,0 0,-0.72025 0.0479,0 c 0.4805,0 0.91266,0.0959 1.29671,0.2881 0.38455,0.1919 0.72075,0.48 1.00885,0.8162 l 0,-0.9605 0.76811,0 0,6.09973 -0.76811,0 0,-0.96051 c -0.24025,0.38406 -0.57645,0.62431 -1.00885,0.86456 -0.43215,0.1919 -0.86406,0.2876 -1.34456,0.2876 l 0,5e-4 z m 0,-6.43568 0,0.72025 c -0.6243,0 -1.20076,0.24025 -1.63291,0.72025 -0.4805,0.48051 -0.72075,1.10481 -0.72075,1.82506 0,0.67241 0.24025,1.24861 0.72075,1.72911 0.43215,0.48 1.00836,0.67241 1.63291,0.72026 l 0,0.72075 0,0 c -0.91265,0 -1.63291,-0.3367 -2.25721,-0.91265 -0.57645,-0.62431 -0.91265,-1.39316 -0.91265,-2.30557 0,-0.9124 0.3362,-1.68075 0.91265,-2.30506 0.62455,-0.57645 1.34481,-0.9124 2.25721,-0.9124 l 0,0 z m -11.04655,6.43568 0,-0.7686 0,0 c 0.6724,0 1.20075,-0.24026 1.6329,-0.72026 0.48051,-0.43265 0.67291,-1.05695 0.67291,-1.77721 0,-0.72025 -0.1924,-1.2967 -0.67291,-1.77721 -0.43215,-0.43215 -0.9605,-0.6724 -1.6329,-0.6724 l 0,-0.7681 c 0.86455,0 1.5848,0.3362 2.20911,0.91215 0.6243,0.6243 0.9605,1.39316 0.9605,2.25771 0,0.91266 -0.3362,1.68076 -0.9605,2.35316 -0.57621,0.62406 -1.34431,0.96076 -2.20911,0.96076 l 0,0 0,0 0,0 z m 4.08227,-0.1924 0,-8.06859 0.7686,0 0,8.06859 -0.7686,0 0,0 z m 2.06556,0 0,-8.06859 0.7686,0 0,8.06859 -0.7686,0 z m -6.14783,-6.29138 0,0.7681 c -0.0478,0 -0.0478,0 -0.0478,0 -0.62431,0 -1.20051,0.24025 -1.63266,0.6724 -0.43265,0.48051 -0.67241,1.10481 -0.67241,1.77721 0,0.72026 0.23976,1.34456 0.67241,1.77721 0.43215,0.48 1.00835,0.72026 1.68051,0.72026 l 0,0.7686 c -0.91266,0 -1.63266,-0.3367 -2.25697,-0.96101 -0.6243,-0.6243 -0.9124,-1.39265 -0.9124,-2.25721 0,-0.91265 0.2881,-1.68075 0.9124,-2.30506 0.62431,-0.6729 1.34456,-0.9605 2.20912,-0.9605 0,0 0,0 0.0478,0 l 0,0 0,0 z m -18.34604,6.48378 0,-0.8167 c 0.3362,-0.0478 0.6243,-0.14431 0.86455,-0.33621 0.2881,-0.24025 0.57595,-0.57645 0.86405,-1.1048 l -1.7286,-1.58481 0,-1.29671 c 0.38405,-0.1924 0.6243,-0.3362 0.8162,-0.57645 0.1924,-0.24025 0.2881,-0.52835 0.2881,-0.86455 0,-0.2881 -0.0959,-0.57646 -0.2881,-0.76811 -0.23975,-0.24025 -0.48,-0.3362 -0.7681,-0.3362 0,0 0,0 -0.0479,0 l 0,-0.7686 c 0.0479,0 0.0479,0 0.0959,0 0.4805,0 0.91265,0.1924 1.2967,0.57645 0.38455,0.38405 0.57646,0.81671 0.57646,1.34456 0,0.43265 -0.1438,0.7686 -0.43216,1.1529 -0.24025,0.3362 -0.6243,0.57646 -1.1529,0.81671 l 1.68126,1.53696 0.91215,-2.54582 0.91265,0 -1.2486,3.07392 1.82506,1.68126 -0.52785,0.57645 -1.63341,-1.48886 c -0.23975,0.57646 -0.57646,0.96051 -1.00836,1.29671 -0.38405,0.24025 -0.8167,0.38405 -1.2967,0.43215 l 0,0 0,-2.5e-4 z m 13.49541,-6.19593 c -0.3362,-0.48 -0.7681,-0.86405 -1.20025,-1.10431 -0.43266,-0.24025 -0.96101,-0.3362 -1.53696,-0.3362 -0.91266,0 -1.68126,0.3362 -2.30556,0.96051 -0.67241,0.6724 -0.96051,1.48885 -0.96051,2.40151 0,1.00835 0.2881,1.82506 0.96051,2.49746 0.6243,0.6724 1.39315,1.00836 2.30556,1.00836 0.57595,0 1.05645,-0.1438 1.53696,-0.38406 0.43215,-0.1924 0.8162,-0.57645 1.1524,-1.00835 l 0.96051,0 c -0.38406,0.6724 -0.86406,1.20025 -1.48836,1.58481 -0.6243,0.38405 -1.34506,0.57645 -2.11341,0.57645 -1.20076,0 -2.16126,-0.43265 -2.97797,-1.24911 -0.8167,-0.8162 -1.20075,-1.82455 -1.20075,-3.02531 0,-0.57645 0.0965,-1.10481 0.3362,-1.63341 0.1924,-0.48 0.52835,-0.9605 0.9605,-1.34456 0.38456,-0.38405 0.81671,-0.72025 1.29721,-0.91265 0.48,-0.1924 1.00836,-0.2881 1.53696,-0.2881 0.8162,0 1.53696,0.1924 2.20911,0.57645 0.6243,0.43215 1.15291,0.96051 1.48886,1.68076 l -0.96101,0 0,-2.5e-4 z m -13.49541,-2.25721 0,0.7686 c -0.28811,0 -0.57646,0.096 -0.76861,0.3362 -0.1919,0.1919 -0.2881,0.48001 -0.2881,0.81621 0,0.24025 0.0479,0.4805 0.1924,0.72075 0.1438,0.1919 0.38405,0.43215 0.72025,0.72025 0.0478,0 0.0965,-0.0478 0.14431,-0.0478 l 0,1.29671 -0.43266,-0.38405 c -0.38405,0.1924 -0.72025,0.43215 -0.91265,0.72025 -0.1919,0.3362 -0.3362,0.67241 -0.3362,1.05696 0,0.48 0.1443,0.86405 0.43265,1.20075 0.3362,0.2876 0.6724,0.43216 1.1524,0.43216 0.0484,0 0.0965,0 0.0965,0 l 0,0.8167 c -0.0479,0 -0.0965,0 -0.14431,0 -0.6724,0 -1.20075,-0.24025 -1.68075,-0.72075 -0.43266,-0.48 -0.67241,-1.05646 -0.67241,-1.72861 0,-0.4805 0.1438,-0.96051 0.38405,-1.34506 0.28811,-0.43215 0.67241,-0.7681 1.15291,-0.9605 -0.38455,-0.3362 -0.6243,-0.62431 -0.72075,-0.86456 -0.1438,-0.2881 -0.23975,-0.57595 -0.23975,-0.91265 0,-0.52785 0.1919,-0.96051 0.57595,-1.34456 0.3843,-0.3367 0.8162,-0.5291 1.34481,-0.57695 l 0,0 0,0 z m -8.50125,10.66225 0,-0.7686 0,0 c 0.67241,0 1.24861,-0.1919 1.68126,-0.67241 0.43215,-0.4805 0.6243,-1.1048 0.6243,-1.87316 l 0,-0.1443 c -0.2881,0.38456 -0.6243,0.72076 -1.00885,0.91266 -0.38405,0.1924 -0.81621,0.2881 -1.24861,0.2881 -0.0479,0 -0.0479,0 -0.0479,0 l 0,-0.72025 0,0 c 0.57646,0 1.15291,-0.24026 1.58481,-0.72026 0.4805,-0.4805 0.72075,-1.05695 0.72075,-1.72911 0,-0.67215 -0.24025,-1.2967 -0.72075,-1.77721 -0.43215,-0.48 -0.9605,-0.72025 -1.58481,-0.72025 l 0,0 0,-0.72025 c 0.48051,0 0.91266,0.096 1.29671,0.2881 0.38455,0.1438 0.72075,0.48 1.00885,0.86405 l 0,-1.00835 0.76811,0 0,5.09112 c 0,1.10431 -0.2881,1.92101 -0.81621,2.49747 -0.52835,0.6243 -1.2491,0.91265 -2.20961,0.91265 l -0.0481,0 0,0 z m 0,-8.64479 0,0.72025 c -0.6724,0 -1.1529,0.24025 -1.58481,0.6724 -0.48,0.48051 -0.72025,1.05696 -0.72025,1.77721 0,0.67241 0.24025,1.29671 0.72025,1.77721 0.43266,0.48001 0.91266,0.72026 1.58481,0.72026 l 0,0.72025 c -0.86455,0 -1.63291,-0.2881 -2.20911,-0.91266 -0.6243,-0.6243 -0.91265,-1.39265 -0.91265,-2.30506 0,-0.9124 0.2881,-1.6329 0.91265,-2.25721 0.57645,-0.6243 1.34456,-0.91265 2.16126,-0.91265 0,0 0,0 0.0479,0 l 0,0 z m 0,7.87619 0,0.7686 c -0.6724,0 -1.20075,-0.1924 -1.68076,-0.4805 -0.52835,-0.38405 -0.8167,-0.81671 -0.9605,-1.39266 l 0.91265,0 c 0.0959,0.3362 0.33621,0.6243 0.62431,0.8162 0.3362,0.19241 0.6243,0.28836 1.1043,0.28836 l 0,0 0,0 z m -24.78247,-1.44051 0,-0.72075 0,0 c 0.6243,0 1.1529,-0.28811 1.63316,-0.76811 0.48025,-0.4805 0.6724,-1.1048 0.6724,-1.77721 0,-0.6724 -0.19215,-1.2486 -0.6724,-1.72911 -0.48026,-0.48 -1.00861,-0.72025 -1.58481,-0.72025 -0.0481,0 -0.0481,0 -0.0481,0 l 0,-0.72025 0.0481,0 c 0.48025,0 0.91265,0.0959 1.29671,0.2881 0.3843,0.1919 0.7205,0.48 0.9605,0.8162 l 0,-0.9605 0.76835,0 0,6.09973 -0.76835,0 0,-0.96051 c -0.24,0.38406 -0.5762,0.62431 -0.9605,0.86456 -0.43241,0.1919 -0.86431,0.2876 -1.34481,0.2876 l 0,0 0,5e-4 z m 5.13922,-0.1924 -0.8167,0 0,-6.09973 0.76835,0 0,0.72025 c 0.19241,-0.2876 0.38431,-0.48 0.62431,-0.6243 0.1924,-0.1438 0.4805,-0.1919 0.76835,-0.1919 l 0,0.86455 c -0.48025,0.0478 -0.81645,0.1919 -1.05645,0.43215 -0.19241,0.24026 -0.28811,0.67241 -0.28811,1.20076 l 0,3.69822 2.5e-4,0 0,0 z m 2.06506,-6.09948 0.76836,0 0,0.6724 c 0.24025,-0.23975 0.48025,-0.48 0.81645,-0.6243 0.33645,-0.096 0.67266,-0.1919 1.10481,-0.1919 0.43215,0 0.81645,0.0959 1.2005,0.23975 0.33646,0.1924 0.62431,0.43265 0.81671,0.72075 0.14405,0.24025 0.24,0.48 0.28785,0.81621 0.0962,0.2881 0.0962,0.72075 0.0962,1.2972 l 0,3.16962 -0.76835,0 0,-3.41012 c 0,-0.72025 -0.14405,-1.2486 -0.38406,-1.58481 -0.2881,-0.3362 -0.7205,-0.4805 -1.3448,-0.4805 -0.3843,0 -0.67241,0.0479 -0.96051,0.1924 -0.24025,0.1438 -0.48025,0.38405 -0.6243,0.62431 -0.0962,0.1919 -0.14405,0.38405 -0.1924,0.57645 -0.0479,0.23975 -0.0479,0.57645 -0.0479,1.1043 l 0,2.97797 -0.76836,0 0,-6.09973 -2.5e-4,0 0,0 z m 7.15594,-0.72025 -0.7681,0 0,-1.24861 0.7681,0 0,1.24861 0,0 z m -0.7681,6.81973 0,-6.09973 0.7681,0 0,6.09973 -0.7681,0 0,0 z m 2.01746,-6.09948 0.7681,0 0,0.6724 c 0.24025,-0.23975 0.52835,-0.48 0.86455,-0.6243 0.28811,-0.096 0.67241,-0.1919 1.05646,-0.1919 0.4805,0 0.86455,0.0959 1.20076,0.23975 0.38405,0.1924 0.6243,0.43265 0.86455,0.72075 0.1438,0.24025 0.24025,0.48 0.2881,0.81621 0.0478,0.2881 0.0959,0.72075 0.0959,1.2972 l 0,3.16962 -0.7681,0 0,-3.41012 c 0,-0.72025 -0.1443,-1.2486 -0.43265,-1.58481 -0.28836,-0.3362 -0.72026,-0.4805 -1.34456,-0.4805 -0.3362,0 -0.6243,0.0479 -0.91266,0.1924 -0.2881,0.1438 -0.4805,0.38405 -0.6243,0.62431 -0.0959,0.1919 -0.1924,0.38405 -0.24025,0.57645 0,0.23975 -0.0478,0.57645 -0.0478,1.1043 l 0,2.97797 -0.7681,0 0,-6.09973 0,0 z m -15.60958,-0.1438 0,0.72025 c -0.67241,0 -1.20051,0.24025 -1.63291,0.72025 -0.48025,0.48051 -0.7205,1.10481 -0.7205,1.82506 0,0.67241 0.24025,1.24861 0.7205,1.72911 0.4324,0.48 0.9605,0.67241 1.63291,0.72026 l 0,0.72075 0,0 c -0.91241,0 -1.68076,-0.3367 -2.25721,-0.91265 -0.62431,-0.62431 -0.91266,-1.39316 -0.91266,-2.30557 0,-0.9124 0.3362,-1.68075 0.91266,-2.30506 0.62455,-0.57645 1.34505,-0.9124 2.25721,-0.9124 l 0,0 z m -6.91569,6.43568 0,-0.7686 0,0 c 0.43216,0 0.86431,-0.096 1.24861,-0.33621 0.3362,-0.24025 0.6243,-0.57645 0.81645,-1.00835 l 0.91266,0 c -0.2881,0.6724 -0.6724,1.20076 -1.20076,1.58481 -0.5281,0.3362 -1.10455,0.52785 -1.77696,0.52785 l 0,0 0,0 0,5e-4 z m 0,-2.97797 0,-0.6724 2.30532,0 c -0.14405,-0.6729 -0.43241,-1.20075 -0.81671,-1.53696 -0.38405,-0.3362 -0.91265,-0.52835 -1.48861,-0.52835 l 0,-0.7686 c 0,0 0,0 0.0478,0 0.91266,0 1.68101,0.3367 2.25747,0.961 0.5762,0.62431 0.8643,1.48836 0.8643,2.49746 l 0,0.0478 -3.16962,0 0,0 z m -15.46527,-1.68125 3.41011,0 0,0.8167 -3.41011,0 0,2.88151 3.41011,0 0,0.76861 -4.22657,0 0,-8.06859 4.22657,0 0,0.7681 -3.41011,0 0,2.83367 0,0 z m 15.46527,-1.82456 0,0.7681 c -0.0481,0 -0.0481,0 -0.0962,0 -0.57645,0 -1.0567,0.1924 -1.48885,0.52835 -0.43216,0.38406 -0.67241,0.91266 -0.76836,1.53696 l 2.35366,0 0,0.6724 -2.35366,0 c 0.0481,0.67241 0.2881,1.20076 0.72051,1.58481 0.4324,0.43215 0.9605,0.62431 1.63315,0.62431 l 0,0.7686 c -0.91265,0 -1.63315,-0.3367 -2.25746,-0.96101 -0.6243,-0.6243 -0.91265,-1.39265 -0.91265,-2.25721 0,-0.9605 0.2881,-1.7286 0.91265,-2.35366 0.57621,-0.57545 1.34456,-0.86355 2.25721,-0.91165 l 0,0 0,0 z m -8.35719,2.88151 0,0.72026 -2.64151,0 0,-0.72026 2.64151,0 0,0 z m 4.94708,3.40987 -3.65012,0 0,-8.06859 0.76835,0 0,7.29998 2.88177,0 0,0.76861 z"
           inkscape:connector-curvature="0"
           id="path6670"
           style="fill:#f2f2f2" />
      </g>
    </g>
  </g>
</svg>
